# xmcd CD database file
#
# Track frame offsets:
#	150
#	16670
#	41218
#	61715
#	83343
#	102375
#	127298
#	144493
#	169260
#	189990
#	212290
#
# Disc length: 3188 seconds
#
# Revision: 0
# Processed by: cddbd v1.4PL0 Copyright (c) Steve Scherf et al.
# Submitted via: Feurio! 1.65 - http://www.feurio.com
#
DISCID=8b0c720b
DTITLE=Rita Coolidge - Love Lessons -1993
DYEAR=1993
DGENRE=rock
TTITLE0=Heart Don't Fail Me Now
TTITLE1=Just A Kiss Away
TTITLE2=Nobody But You
TTITLE3=If You Find It
TTITLE4=Love Lessons
TTITLE5=Ain't No Reason
TTITLE6=You've Got The Best Of Me
TTITLE7=Girlfriend
TTITLE8=One Heartbreak
TTITLE9=I Want To Know What Love Is
TTITLE10=Cherokee
EXTD=Caliber-1993
EXTT0=
EXTT1=
EXTT2=
EXTT3=
EXTT4=
EXTT5=
EXTT6=
EXTT7=
EXTT8=
EXTT9=
EXTT10=
PLAYORDER=
